HIERARCHY
ROOT Hips
{
  OFFSET -0.0683361 100.91 2.29056
  CHANNELS 6 Xposition Yposition Zposition Zrotation Xrotation Yrotation
  JOINT Spine
  {
    OFFSET 0 10.1816 0.1315
    CHANNELS 3 Zrotation Xrotation Yrotation
    JOINT Spine1
    {
      OFFSET 0 10.0835 -1.0008
      CHANNELS 3 Zrotation Xrotation Yrotation
      JOINT Spine2
      {
        OFFSET 0 9.1 -1.3734
        CHANNELS 3 Zrotation Xrotation Yrotation
        JOINT Neck
        {
          OFFSET 0 16.6717 -2.5162
          CHANNELS 3 Zrotation Xrotation Yrotation
          JOINT Head
          {
            OFFSET 0 9.6179 1.685
            CHANNELS 3 Zrotation Xrotation Yrotation
            End Site
            {
              OFFSET 0 0 0
            }
          }
        }
        JOINT LeftShoulder
        {
          OFFSET 4.5704 10.946 -2.628
          CHANNELS 3 Zrotation Xrotation Yrotation
          JOINT LeftArm
          {
            OFFSET 10.5924 -0.5246 -2.2321
            CHANNELS 3 Zrotation Xrotation Yrotation
            JOINT LeftForeArm
            {
              OFFSET 27.8415 -0.0001 0
              CHANNELS 3 Zrotation Xrotation Yrotation
              JOINT LeftHand
              {
                OFFSET 28.3288 0 0
                CHANNELS 3 Zrotation Xrotation Yrotation
                End Site
                {
                  OFFSET 0 0 0
                }
              }
            }
          }
        }
        JOINT RightShoulder
        {
          OFFSET -4.57 10.9462 -2.628
          CHANNELS 3 Zrotation Xrotation Yrotation
          JOINT RightArm
          {
            OFFSET -10.5928 -0.5248 -2.2321
            CHANNELS 3 Zrotation Xrotation Yrotation
            JOINT RightForeArm
            {
              OFFSET -27.8415 0 0
              CHANNELS 3 Zrotation Xrotation Yrotation
              JOINT RightHand
              {
                OFFSET -28.3288 0 0.0001
                CHANNELS 3 Zrotation Xrotation Yrotation
                End Site
                {
                  OFFSET 0 0 0
                }
              }
            }
          }
        }
      }
    }
  }
  JOINT LeftUpLeg
  {
    OFFSET 8.2078 -6.7517 -1.5996
    CHANNELS 3 Zrotation Xrotation Yrotation
    JOINT LeftLeg
    {
      OFFSET 0 -44.3705 0.2846
      CHANNELS 3 Zrotation Xrotation Yrotation
      JOINT LeftFoot
      {
        OFFSET 0 -44.4279 -2.9822
        CHANNELS 3 Zrotation Xrotation Yrotation
        JOINT LeftToeBase
        {
          OFFSET 0 -8.7287 10.7106
          CHANNELS 3 Zrotation Xrotation Yrotation
          End Site
          {
            OFFSET 0 0 0
          }
        }
      }
    }
  }
  JOINT RightUpLeg
  {
    OFFSET -8.2078 -6.7517 -1.5996
    CHANNELS 3 Zrotation Xrotation Yrotation
    JOINT RightLeg
    {
      OFFSET 0 -44.3705 0.2862
      CHANNELS 3 Zrotation Xrotation Yrotation
      JOINT RightFoot
      {
        OFFSET 0 -44.4277 -2.9838
        CHANNELS 3 Zrotation Xrotation Yrotation
        JOINT RightToeBase
        {
          OFFSET 0 -8.7287 10.7106
          CHANNELS 3 Zrotation Xrotation Yrotation
          End Site
          {
            OFFSET 0 0 0
          }
        }
      }
    }
  }
}
MOTION
Frames:	11
Frame Time:	0.0333333
-2.38474 88.3952 106.786 0.338091 -10.8824 4.71489 0.705316 9.26999 3.23117 0.25581 3.6047 1.3743 0.26515 3.59737 1.39107 -1.25829 7.53954 -2.55086 1.40267 -9.86756 -16.0543 -7.49268 9.69063 -5.98751 -46.2975 15.9286 19.1139 -0.000211861 1.00495e-05 -71.6692 4.6228 -12.5198 4.91029 9.76615 9.28804 -3.19542 35.9582 18.0963 6.58653 -3.87345e-06 -1.28538e-06 50.3971 -4.87118 6.0513 -10.6201 16.609 -35.9683 14.3867 -3.39449 56.5043 -6.79215 -1.39634 -6.391 -3.13464 -2.12969e-08 -2.45735 -7.4677e-07 -11.556 -35.029 -15.8271 -10.1721 57.3738 4.90554 6.47269 -10.0756 0.00893218 9.73718e-07 -1.99146 -6.67857e-06 
-2.16812 84.2225 110.285 -0.167859 -12.2554 3.73754 0.934877 10.214 3.55489 0.353362 3.92507 1.52439 0.36735 3.91537 1.5452 -0.705475 6.25334 -2.65765 1.53471 -13.3176 -15.6004 -7.15381 9.40206 -6.11656 -51.5775 8.12137 15.812 -0.000206846 1.0226e-05 -61.2432 6.70662 -8.95484 6.19773 9.29622 9.30357 -2.65137 37.2718 14.9459 12.7471 -9.7646e-07 -2.2719e-07 39.6762 -7.83375 -0.173971 -11.4214 18.4515 -38.2336 15.6477 -0.284782 68.1245 -9.47812 -1.55892 -15.8004 -3.88232 -7.96232e-07 -0.319688 8.50989e-07 -11.7689 -37.604 -14.9508 -15.3799 68.3339 10.2572 7.80972 -17.2956 0.524643 -1.2564e-06 -0.0328822 -8.67131e-06 
-2.15948 82.6176 113.076 -0.542009 -11.8436 3.31295 1.02383 10.8207 3.70686 0.378128 4.1364 1.59403 0.394906 4.12547 1.6172 -0.457625 4.66837 -2.68746 1.99417 -16.3332 -15.2716 -7.60622 10.3305 -6.6363 -55.1261 0.650856 9.63467 -0.000211025 8.72682e-06 -51.1709 6.86547 -7.12096 9.58402 8.86533 9.2373 -2.32514 39.0007 13.9401 18.8721 -1.77021e-06 7.25819e-06 29.8212 -9.72601 -8.75885 -12.5943 20.3267 -39.1001 17.4057 1.82726 73.1733 -11.2139 -2.13485 -19.0755 -4.63108 2.96957e-07 -1.61293 1.39006e-06 -11.486 -38.3357 -14.1325 -18.4892 72.8465 13.3354 8.688 -21.572 0.936862 1.82383e-07 -1.06477 1.56956e-06 
-2.27196 82.9493 115.23 -0.754544 -10.3224 4.10789 1.07108 11.0311 3.44152 0.388452 4.21234 1.48293 0.404993 4.20233 1.50534 -0.786143 2.71408 -2.67577 2.5338 -18.77 -15.3673 -8.51829 12.0377 -7.26844 -56.6043 -2.30034 3.37013 -0.000203439 -1.52191e-06 -46.1154 5.69145 -8.6548 13.0962 7.92766 8.48873 -2.85639 41.0921 15.8429 22.6639 -4.52247e-06 3.93848e-06 24.8597 -6.28217 -13.4306 -11.919 21.5199 -39.1441 18.6478 1.11549 73.4858 -10.215 -2.06322 -20.2009 -6.138 -6.92038e-07 -3.38493 -4.8932e-07 -11.219 -37.9996 -13.9512 -17.7675 73.0929 11.9305 9.47572 -23.4381 1.21784 -1.15962e-06 -1.90236 -2.60477e-06 
-2.4409 84.3258 116.933 -0.78072 -8.66322 5.85124 1.06412 11.0983 2.83984 0.387263 4.24572 1.22722 0.40129 4.23826 1.24647 -1.40942 0.757613 -2.75495 2.68698 -21.0664 -16.0625 -9.27612 13.7259 -7.84339 -56.7019 -0.714098 -1.41537 -0.000197535 -5.18258e-06 -46.8078 5.61457 -12.0222 14.8098 6.82136 7.41161 -3.91064 43.2352 19.1616 23.5826 8.14967e-07 2.05164e-06 25.3872 0.974264 -10.0238 -9.06602 21.0723 -38.6813 18.2376 0.170688 71.0684 -9.24313 -2.15676 -20.2735 -7.42684 2.78097e-06 -3.58967 3.08632e-06 -11.0374 -36.7123 -14.2017 -15.3379 71.0166 8.28438 10.287 -23.9054 1.42081 9.09474e-07 -2.37611 2.39464e-06 
-2.64916 86.3469 118.417 -0.705124 -7.11722 7.34089 0.90601 11.0332 2.32171 0.334252 4.23456 1.00291 0.345578 4.22951 1.01895 -1.79238 -0.491268 -2.96429 2.34979 -23.0502 -17.1956 -9.54911 14.5739 -8.16277 -56.7759 2.31445 -4.87936 -0.000192503 3.91837e-07 -49.8367 7.65412 -14.0235 13.9172 6.40517 6.88422 -4.57698 45.1217 21.7179 22.5015 -4.6893e-06 -2.34298e-06 28.7752 5.03181 -1.44126 -7.04162 19.3837 -37.5393 16.5766 0.17948 67.033 -9.26036 -2.63127 -19.4957 -7.66353 2.30068e-06 -3.51201 2.77385e-07 -10.6504 -34.916 -14.3382 -12.8923 67.5533 4.7664 10.7066 -22.9663 1.43927 1.52896e-06 -3.19247 -2.84392e-06 
-2.81878 88.7835 119.821 -0.813362 -5.4039 7.67226 0.624168 10.6086 2.22013 0.230828 4.08318 0.950759 0.240809 4.07902 0.965198 -1.76641 -0.731092 -3.20056 1.91992 -23.8452 -18.3395 -9.47279 14.3495 -8.08501 -57.5429 4.65932 -7.71296 -0.00019412 -5.74037e-07 -51.7016 10.8167 -13.6761 11.2684 6.93754 7.20464 -4.47065 46.659 22.576 20.7433 5.11195e-06 3.83025e-06 31.7286 3.46111 4.96827 -7.78022 17.9375 -35.7993 15.133 0.0550322 61.9806 -9.16679 -3.19312 -17.8646 -6.97753 2.06018e-06 -3.93056 -1.04658e-06 -10.0025 -33.2121 -14.2757 -10.4177 63.0658 2.09022 10.3296 -20.6578 1.19978 -2.42701e-06 -4.43079 -6.76179e-06 
-2.89566 91.321 121.16 -1.11295 -3.51501 7.1442 0.358435 9.79756 2.43562 0.130609 3.77685 1.0331 0.140388 3.77233 1.04708 -1.609 -0.34934 -3.34489 1.78542 -23.198 -19.0326 -9.32042 13.6217 -7.74939 -58.3545 6.65306 -10.1427 -0.000217642 -3.23334e-06 -51.8386 13.0173 -12.8397 8.63573 7.89101 7.90518 -4.00567 47.8349 22.4064 19.2682 5.10637e-07 3.447e-06 32.7857 -0.0696712 5.27844 -10.5061 17.2635 -33.7549 14.5004 -0.665878 56.4053 -8.60429 -3.54464 -15.6783 -6.02058 1.03057e-06 -4.61915 -1.66435e-06 -9.56491 -31.5938 -14.5984 -7.66672 57.9084 0.324786 9.13007 -17.7985 0.857205 -7.14447e-08 -5.77154 6.31946e-06 
-2.91279 93.647 122.412 -1.33185 -1.82709 6.47373 0.202371 8.91643 2.61501 0.075188 3.43999 1.1037 0.0847232 3.43515 1.11692 -1.58638 0.0703429 -3.34216 1.88522 -22.1356 -19.0781 -9.25788 13.1839 -7.4992 -57.9994 9.13134 -11.9819 -0.000213307 3.18329e-07 -51.8397 12.5707 -13.0945 7.32636 8.68247 8.45286 -3.70095 48.4944 22.3787 18.425 1.03102e-05 -7.61006e-06 32.6399 -1.26399 1.59927 -13.381 16.8854 -31.4431 14.2863 -1.68691 50.7073 -7.91265 -3.67542 -13.5112 -5.23726 1.16005e-06 -5.07668 -4.87183e-06 -9.69982 -29.7343 -15.6339 -4.92921 52.6454 -0.37642 7.4748 -15.1111 0.549061 -2.45064e-06 -6.81541 -3.63435e-06 
-2.89465 95.5358 123.558 -1.37668 -0.589859 5.88696 0.146928 8.3044 2.54336 0.0612054 3.20905 1.07136 0.0697832 3.20464 1.08298 -1.67244 0.24702 -3.22517 1.94057 -21.9061 -18.5841 -9.31041 13.2947 -7.52653 -56.0996 11.9502 -13.193 -0.000222018 1.22826e-05 -52.7506 9.87803 -13.8227 7.57726 9.15691 8.73331 -3.63579 48.4079 23.0685 18.2019 -7.75771e-06 -5.63583e-06 32.5525 1.39314 -2.00845 -14.9985 16.385 -28.9716 14.0062 -2.53784 45.3556 -7.46173 -3.76314 -11.936 -4.56496 -1.23384e-06 -4.94242 5.34649e-06 -10.0511 -27.6439 -16.8474 -2.76446 47.793 -0.154886 5.94952 -13.0978 0.334017 -5.21922e-08 -7.27746 5.85694e-07 
-2.81558 96.8894 124.586 -1.35507 0.243255 5.2305 0.133866 8.04699 2.265 0.0619821 3.11904 0.954225 0.0691476 3.11555 0.964117 -1.70775 0.227308 -3.06815 1.87664 -22.6684 -17.7889 -9.38951 13.6049 -7.71044 -53.3654 14.6306 -14.1823 -0.000219661 4.56944e-06 -53.8046 6.83023 -13.7623 8.64555 9.45638 8.92269 -3.58453 47.5653 24.2871 18.5588 -1.37178e-05 -5.30963e-06 32.87 5.96267 -3.55142 -14.8992 15.6949 -26.6704 13.4473 -2.88314 40.9445 -7.4409 -3.95567 -11.2664 -3.59222 1.38133e-08 -4.41738 -1.42012e-06 -9.99561 -25.7084 -17.4099 -1.66185 43.6797 0.695152 5.01344 -12.0348 0.217109 2.24904e-06 -7.04746 -3.18326e-06 
